# xmcd
#
# Track frame offsets: 
#        150
#        19649
#        44176
#        59025
#        79218
#        93469
#        117733
#        139874
#        155859
#        175441
#
# Disc length: 2560 seconds
#
# Revision: 4
# Processed by: cddbd v1.5.2PL0 Copyright (c) Steve Scherf et al.
# Submitted via: ExactAudioCopy v1.0b3
#
DISCID=9a09fe0a
DTITLE=Peter Green's Katmandu - A Case For The Blues
DYEAR=2000
DGENRE=Blues Rock
TTITLE0=Dust My Broom
TTITLE1=One More Night Without You
TTITLE2=Crane's Train Boogie
TTITLE3=Boogie All The Way
TTITLE4=Zulu Gone West
TTITLE5=Blowing All My Troubles Away
TTITLE6=Strangers Blues
TTITLE7=Sweet Sixteen
TTITLE8=Who's That Knocking
TTITLE9=The Case
EXTD=
EXTT0=
EXTT1=
EXTT2=
EXTT3=
EXTT4=
EXTT5=
EXTT6=
EXTT7=
EXTT8=
EXTT9=
PLAYORDER=
